<svg width="1544" height="500" viewBox="0 0 1544 500" fill="none" xmlns="http://www.w3.org/2000/svg">
  <defs>
    <linearGradient id="bg" x1="37" y1="22" x2="1502" y2="480" gradientUnits="userSpaceOnUse">
      <stop stop-color="#0E3B9A"/>
      <stop offset="0.58" stop-color="#0B4FC2"/>
      <stop offset="1" stop-color="#0BB4A6"/>
    </linearGradient>
    <linearGradient id="ticketFill" x1="165" y1="87" x2="525" y2="381" gradientUnits="userSpaceOnUse">
      <stop stop-color="#FFFFFF"/>
      <stop offset="1" stop-color="#F4F8FF"/>
    </linearGradient>
    <linearGradient id="badge" x1="412" y1="293" x2="544" y2="430" gradientUnits="userSpaceOnUse">
      <stop stop-color="#E1FF24"/>
      <stop offset="1" stop-color="#98D800"/>
    </linearGradient>
    <filter id="ticketShadow" x="118" y="79" width="493" height="354" filterUnits="userSpaceOnUse" color-interpolation-filters="sRGB">
      <feOffset dy="20"/>
      <feGaussianBlur stdDeviation="18"/>
      <feColorMatrix type="matrix" values="0 0 0 0 0.0117647 0 0 0 0 0.109804 0 0 0 0 0.290196 0 0 0 0.24 0"/>
      <feBlend mode="normal" in2="BackgroundImageFix" result="effect1_dropShadow_1_1"/>
      <feBlend mode="normal" in="SourceGraphic" in2="effect1_dropShadow_1_1" result="shape"/>
    </filter>
    <filter id="badgeShadow" x="389" y="276" width="182" height="181" filterUnits="userSpaceOnUse" color-interpolation-filters="sRGB">
      <feOffset dy="14"/>
      <feGaussianBlur stdDeviation="10"/>
      <feColorMatrix type="matrix" values="0 0 0 0 0.0117647 0 0 0 0 0.109804 0 0 0 0 0.290196 0 0 0 0.24 0"/>
      <feBlend mode="normal" in2="BackgroundImageFix" result="effect1_dropShadow_1_1"/>
      <feBlend mode="normal" in="SourceGraphic" in2="effect1_dropShadow_1_1" result="shape"/>
    </filter>
  </defs>

  <rect width="1544" height="500" rx="22" fill="url(#bg)"/>
  <circle cx="119" cy="410" r="240" fill="#0A52D4" fill-opacity="0.22"/>
  <circle cx="1310" cy="55" r="240" fill="#18D2D0" fill-opacity="0.1"/>
  <circle cx="1180" cy="448" r="340" fill="#19B7A8" fill-opacity="0.14"/>
  <path d="M0 438C118 367 233 359 347 414C462 469 583 471 725 425C865 380 958 368 1076 407C1181 442 1270 446 1383 415C1448 398 1500 372 1544 342V500H0V438Z" fill="#0E318B" fill-opacity="0.3"/>

  <g filter="url(#ticketShadow)" transform="rotate(-7 360 235)">
    <rect x="165" y="101" width="372" height="248" rx="32" fill="url(#ticketFill)"/>
    <path d="M441 101H489C515.51 101 537 122.49 537 149V177C510.49 177 489 198.49 489 225C489 251.51 510.49 273 537 273V301C537 327.51 515.51 349 489 349H441" fill="#EDF4FF"/>
    <path d="M441 101V349" stroke="#143D9A" stroke-width="6" stroke-dasharray="12 16"/>
    <path d="M219 155L246 173L281 133" stroke="#143D9A" stroke-width="14" stroke-linecap="round" stroke-linejoin="round"/>
    <text x="302" y="174" fill="#102E79" font-family="Arial, Helvetica, sans-serif" font-size="54" font-weight="700">GUESTS</text>

    <rect x="215" y="205" width="181" height="47" rx="23.5" fill="#EFF4FF" stroke="#D2DEFF" stroke-width="2"/>
    <circle cx="244" cy="229" r="12" fill="#2463EB"/>
    <path d="M231 245C235 235 253 235 257 245" stroke="#2463EB" stroke-width="6" stroke-linecap="round"/>
    <text x="274" y="236" fill="#17358C" font-family="Arial, Helvetica, sans-serif" font-size="25" font-weight="700">ADULTS</text>
    <rect x="353" y="205" width="44" height="47" rx="23.5" fill="#2463EB"/>
    <text x="369" y="237" fill="#FFFFFF" font-family="Arial, Helvetica, sans-serif" font-size="28" font-weight="700">2</text>

    <rect x="215" y="264" width="181" height="47" rx="23.5" fill="#F1FBEE" stroke="#D6F0CF" stroke-width="2"/>
    <circle cx="244" cy="288" r="12" fill="#59C414"/>
    <path d="M231 304C235 294 253 294 257 304" stroke="#59C414" stroke-width="6" stroke-linecap="round"/>
    <text x="274" y="295" fill="#17358C" font-family="Arial, Helvetica, sans-serif" font-size="25" font-weight="700">CHILDREN</text>
    <rect x="353" y="264" width="44" height="47" rx="23.5" fill="#59C414"/>
    <text x="369" y="296" fill="#FFFFFF" font-family="Arial, Helvetica, sans-serif" font-size="28" font-weight="700">1</text>

    <rect x="215" y="323" width="181" height="47" rx="23.5" fill="#F5F0FF" stroke="#E1D8FF" stroke-width="2"/>
    <circle cx="244" cy="347" r="12" fill="#6D45D8"/>
    <circle cx="244" cy="347" r="4" fill="#FFFFFF"/>
    <path d="M236 357C239 351 249 351 252 357" stroke="#6D45D8" stroke-width="4" stroke-linecap="round"/>
    <text x="274" y="354" fill="#17358C" font-family="Arial, Helvetica, sans-serif" font-size="25" font-weight="700">AGES</text>
    <rect x="353" y="323" width="44" height="47" rx="23.5" fill="#6D45D8"/>
    <text x="369" y="355" fill="#FFFFFF" font-family="Arial, Helvetica, sans-serif" font-size="28" font-weight="700">5</text>
  </g>

  <g filter="url(#badgeShadow)">
    <circle cx="480" cy="340" r="64" fill="url(#badge)"/>
    <circle cx="480" cy="340" r="48" fill="none" stroke="#F7FFCC" stroke-width="16" stroke-dasharray="7 11"/>
    <path d="M449 339L469 358L510 313" stroke="#17461B" stroke-width="16" stroke-linecap="round" stroke-linejoin="round"/>
    <path d="M462 273H499L480 300L462 273Z" fill="#2F7E13"/>
  </g>

  <text x="640" y="170" fill="#FFFFFF" font-family="Arial, Helvetica, sans-serif" font-size="92" font-weight="700">Smart</text>
  <text x="640" y="282" fill="#E8FF2B" font-family="Arial, Helvetica, sans-serif" font-size="104" font-weight="700">Guest</text>
  <text x="970" y="282" fill="#FFFFFF" font-family="Arial, Helvetica, sans-serif" font-size="104" font-weight="700">Selector</text>
  <text x="640" y="365" fill="#DDE8FF" font-family="Arial, Helvetica, sans-serif" font-size="62" font-weight="600">for Contact Form 7</text>

  <g opacity="0.95">
    <circle cx="690" cy="430" r="26" fill="#255FE8"/>
    <circle cx="684" cy="425" r="6.5" fill="#FFFFFF"/>
    <circle cx="697" cy="425" r="8" fill="#FFFFFF"/>
    <path d="M677 441C680 430 691 430 694 441" stroke="#FFFFFF" stroke-width="4.5" stroke-linecap="round"/>
    <path d="M692 442C695 430 709 430 712 442" stroke="#FFFFFF" stroke-width="5" stroke-linecap="round"/>
    <text x="730" y="422" fill="#FFFFFF" font-family="Arial, Helvetica, sans-serif" font-size="33" font-weight="700">Adults &amp; Children</text>
  </g>

  <g opacity="0.95">
    <circle cx="974" cy="430" r="26" fill="#59C414"/>
    <circle cx="974" cy="430" r="8" fill="#FFFFFF"/>
    <path d="M963 444C966 435 982 435 985 444" stroke="#FFFFFF" stroke-width="4.5" stroke-linecap="round"/>
    <text x="1014" y="422" fill="#FFFFFF" font-family="Arial, Helvetica, sans-serif" font-size="33" font-weight="700">Child Ages</text>
  </g>

  <g opacity="0.95">
    <circle cx="1183" cy="430" r="26" fill="#18B0BF"/>
    <path d="M1170 430L1180 440L1197 420" stroke="#FFFFFF" stroke-width="6" stroke-linecap="round" stroke-linejoin="round"/>
    <text x="1223" y="422" fill="#FFFFFF" font-family="Arial, Helvetica, sans-serif" font-size="33" font-weight="700">Smart Validation</text>
  </g>
</svg>
