<svg width="256" height="256" viewBox="0 0 256 256" fill="none" xmlns="http://www.w3.org/2000/svg">
  <defs>
    <linearGradient id="bg" x1="28" y1="24" x2="220" y2="232" gradientUnits="userSpaceOnUse">
      <stop stop-color="#1758D6"/>
      <stop offset="1" stop-color="#0BB4A6"/>
    </linearGradient>
    <linearGradient id="badge" x1="158" y1="168" x2="216" y2="226" gradientUnits="userSpaceOnUse">
      <stop stop-color="#D8FF18"/>
      <stop offset="1" stop-color="#95D700"/>
    </linearGradient>
    <filter id="shadow" x="28" y="34" width="188" height="158" filterUnits="userSpaceOnUse" color-interpolation-filters="sRGB">
      <feOffset dy="10"/>
      <feGaussianBlur stdDeviation="10"/>
      <feColorMatrix type="matrix" values="0 0 0 0 0.0313725 0 0 0 0 0.12549 0 0 0 0 0.313726 0 0 0 0.2 0"/>
      <feBlend mode="normal" in2="BackgroundImageFix" result="effect1_dropShadow_1_1"/>
      <feBlend mode="normal" in="SourceGraphic" in2="effect1_dropShadow_1_1" result="shape"/>
    </filter>
    <filter id="badgeShadow" x="144" y="156" width="84" height="84" filterUnits="userSpaceOnUse" color-interpolation-filters="sRGB">
      <feOffset dy="6"/>
      <feGaussianBlur stdDeviation="6"/>
      <feColorMatrix type="matrix" values="0 0 0 0 0.0313725 0 0 0 0 0.12549 0 0 0 0 0.313726 0 0 0 0.22 0"/>
      <feBlend mode="normal" in2="BackgroundImageFix" result="effect1_dropShadow_1_1"/>
      <feBlend mode="normal" in="SourceGraphic" in2="effect1_dropShadow_1_1" result="shape"/>
    </filter>
  </defs>

  <rect x="16" y="16" width="224" height="224" rx="34" fill="url(#bg)"/>
  <circle cx="58" cy="204" r="60" fill="#1A4FC7" fill-opacity="0.25"/>
  <circle cx="204" cy="58" r="52" fill="#0F7DD1" fill-opacity="0.18"/>

  <g filter="url(#shadow)" transform="rotate(-7 124 116)">
    <rect x="54" y="54" width="148" height="112" rx="18" fill="#FDFEFF"/>
    <path d="M164 54h22c8.837 0 16 7.163 16 16v12c-9 0-16 7-16 16s7 16 16 16v36c0 8.837-7.163 16-16 16h-22" fill="#F3F7FF"/>
    <path d="M164 54v112" stroke="#17358C" stroke-width="3" stroke-dasharray="7 10"/>
    <path d="M76 79l12 8 15-17" stroke="#143D9A" stroke-width="6" stroke-linecap="round" stroke-linejoin="round"/>
    <text x="98" y="90" fill="#102E79" font-family="Arial, Helvetica, sans-serif" font-size="22" font-weight="700">GUESTS</text>

    <rect x="72" y="102" width="78" height="21" rx="10.5" fill="#EFF4FF" stroke="#D2DEFF"/>
    <circle cx="84" cy="112.5" r="6.5" fill="#2463EB"/>
    <path d="M77.5 121.5c1.5-5 11.5-5 13 0" stroke="#2463EB" stroke-width="3" stroke-linecap="round"/>
    <text x="96" y="117.5" fill="#17358C" font-family="Arial, Helvetica, sans-serif" font-size="11" font-weight="700">ADULTS</text>
    <rect x="132" y="102" width="24" height="21" rx="10.5" fill="#2463EB"/>
    <text x="141" y="117" fill="white" font-family="Arial, Helvetica, sans-serif" font-size="14" font-weight="700">2</text>

    <rect x="72" y="128" width="78" height="21" rx="10.5" fill="#F1FBEE" stroke="#D6F0CF"/>
    <circle cx="84" cy="138.5" r="6.5" fill="#59C414"/>
    <path d="M77.5 147.5c1.5-5 11.5-5 13 0" stroke="#59C414" stroke-width="3" stroke-linecap="round"/>
    <text x="96" y="143.5" fill="#17358C" font-family="Arial, Helvetica, sans-serif" font-size="11" font-weight="700">CHILD</text>
    <rect x="132" y="128" width="24" height="21" rx="10.5" fill="#59C414"/>
    <text x="141" y="143" fill="white" font-family="Arial, Helvetica, sans-serif" font-size="14" font-weight="700">1</text>

    <rect x="72" y="154" width="78" height="21" rx="10.5" fill="#F5F0FF" stroke="#E1D8FF"/>
    <circle cx="84" cy="164.5" r="6.5" fill="#6D45D8"/>
    <circle cx="84" cy="164.5" r="2.2" fill="white"/>
    <path d="M79.5 169.5c1-2.8 8-2.8 9 0" stroke="#6D45D8" stroke-width="2.5" stroke-linecap="round"/>
    <text x="96" y="169.5" fill="#17358C" font-family="Arial, Helvetica, sans-serif" font-size="11" font-weight="700">AGES</text>
    <rect x="132" y="154" width="24" height="21" rx="10.5" fill="#6D45D8"/>
    <text x="141" y="169" fill="white" font-family="Arial, Helvetica, sans-serif" font-size="14" font-weight="700">5</text>
  </g>

  <g filter="url(#badgeShadow)">
    <circle cx="186" cy="190" r="30" fill="url(#badge)"/>
    <circle cx="186" cy="190" r="22" fill="none" stroke="#F7FFCC" stroke-width="8" stroke-dasharray="3.2 5.6"/>
    <path d="M172 189l9 9 18-20" stroke="#18401B" stroke-width="7" stroke-linecap="round" stroke-linejoin="round"/>
    <path d="M177 159h18l-9 12-9-12z" fill="#2C7A13"/>
  </g>
</svg>
